<?xml version="1.0" standalone="no"?><!DOCTYPE svg PUBLIC "-//W3C//DTD SVG 1.1//EN" "http://www.w3.org/Graphics/SVG/1.1/DTD/svg11.dtd"><svg t="1686184291403" class="icon" viewBox="0 0 1024 1024" version="1.1" xmlns="http://www.w3.org/2000/svg" p-id="2555" xmlns:xlink="http://www.w3.org/1999/xlink" width="200" height="200"><path d="M917.333333 512c0-223.850667-181.482667-405.333333-405.333333-405.333333S106.666667 288.149333 106.666667 512s181.482667 405.333333 405.333333 405.333333 405.333333-181.482667 405.333333-405.333333z m-425.984-5.333333a21.333333 21.333333 0 0 0 6.101334 20.928l124.8 116.394666a21.333333 21.333333 0 0 0 29.12-31.189333l-118.08-110.122667L533.333333 501.333333v-170.666666a21.333333 21.333333 0 0 0-42.666666 0v170.666666c0 1.834667 0.213333 3.626667 0.682666 5.333334zM149.333333 512c0-200.298667 162.368-362.666667 362.666667-362.666667s362.666667 162.368 362.666667 362.666667-162.368 362.666667-362.666667 362.666667S149.333333 712.298667 149.333333 512z m612.501334 305.002667a21.333333 21.333333 0 1 0-30.336 29.994666l74.304 75.157334a21.333333 21.333333 0 1 0 30.336-29.994667l-74.304-75.157333z m-480.362667 29.994666a21.333333 21.333333 0 0 0-30.336-29.994666L176.832 892.16a21.333333 21.333333 0 1 0 30.336 29.994667l74.304-75.157334zM778.496 128A117.525333 117.525333 0 0 1 896 245.333333a21.333333 21.333333 0 0 0 42.666667 0C938.666667 157.077333 866.901333 85.333333 778.496 85.333333h-20.992a21.333333 21.333333 0 1 0 0 42.666667h20.992zM245.504 85.333333C157.098667 85.333333 85.333333 157.077333 85.333333 245.333333a21.333333 21.333333 0 0 0 42.666667 0C128 180.629333 180.672 128 245.504 128h20.992a21.333333 21.333333 0 1 0 0-42.666667h-20.992z" fill="#3D3D3D" p-id="2556"></path></svg>